<mxfile host="app.diagrams.net" modified="2020-12-27T07:03:07.478Z" agent="5.0 (Windows NT 10.0; Win64; x64) AppleWebKit/537.36 (KHTML, like Gecko) Chrome/87.0.4280.88 Safari/537.36" etag="R_JdqX0AEcGnEQoKeL-D" version="14.1.2" type="github">
  <diagram id="nYfGw-OdO5o9pNm-MPYq" name="Page-1">
    <mxGraphModel dx="1422" dy="1931" grid="1" gridSize="10" guides="1" tooltips="1" connect="1" arrows="1" fold="1" page="1" pageScale="1" pageWidth="827" pageHeight="1169" math="0" shadow="0">
      <root>
        <mxCell id="0" />
        <mxCell id="1" parent="0" />
        <mxCell id="ubwD8zAqVZASkOou1UaE-28" value="" style="edgeStyle=orthogonalEdgeStyle;rounded=0;orthogonalLoop=1;jettySize=auto;html=1;entryX=0.5;entryY=0;entryDx=0;entryDy=0;" edge="1" parent="1" source="ubwD8zAqVZASkOou1UaE-2" target="ubwD8zAqVZASkOou1UaE-26">
          <mxGeometry relative="1" as="geometry">
            <mxPoint x="690" y="265" as="targetPoint" />
          </mxGeometry>
        </mxCell>
        <mxCell id="ubwD8zAqVZASkOou1UaE-30" value="" style="edgeStyle=orthogonalEdgeStyle;rounded=0;orthogonalLoop=1;jettySize=auto;html=1;" edge="1" parent="1" source="ubwD8zAqVZASkOou1UaE-2" target="ubwD8zAqVZASkOou1UaE-29">
          <mxGeometry relative="1" as="geometry" />
        </mxCell>
        <mxCell id="ubwD8zAqVZASkOou1UaE-2" value="홈 화면&lt;br&gt;메인 화면" style="ellipse;whiteSpace=wrap;html=1;" vertex="1" parent="1">
          <mxGeometry x="510" y="220" width="100" height="90" as="geometry" />
        </mxCell>
        <mxCell id="ubwD8zAqVZASkOou1UaE-14" value="" style="edgeStyle=orthogonalEdgeStyle;rounded=0;orthogonalLoop=1;jettySize=auto;html=1;" edge="1" parent="1" source="ubwD8zAqVZASkOou1UaE-4" target="ubwD8zAqVZASkOou1UaE-7">
          <mxGeometry relative="1" as="geometry" />
        </mxCell>
        <mxCell id="ubwD8zAqVZASkOou1UaE-4" value="스플래시 화면" style="ellipse;whiteSpace=wrap;html=1;" vertex="1" parent="1">
          <mxGeometry x="55" y="220" width="90" height="90" as="geometry" />
        </mxCell>
        <mxCell id="ubwD8zAqVZASkOou1UaE-5" value="LinearLayout: lin_lay&lt;br&gt;ImageView: splash" style="whiteSpace=wrap;html=1;aspect=fixed;" vertex="1" parent="1">
          <mxGeometry x="40" y="340" width="120" height="120" as="geometry" />
        </mxCell>
        <mxCell id="ubwD8zAqVZASkOou1UaE-15" value="" style="edgeStyle=orthogonalEdgeStyle;rounded=0;orthogonalLoop=1;jettySize=auto;html=1;" edge="1" parent="1" source="ubwD8zAqVZASkOou1UaE-7" target="ubwD8zAqVZASkOou1UaE-11">
          <mxGeometry relative="1" as="geometry" />
        </mxCell>
        <mxCell id="ubwD8zAqVZASkOou1UaE-22" value="" style="edgeStyle=orthogonalEdgeStyle;rounded=0;orthogonalLoop=1;jettySize=auto;html=1;entryX=0.5;entryY=1;entryDx=0;entryDy=0;" edge="1" parent="1" source="ubwD8zAqVZASkOou1UaE-7" target="ubwD8zAqVZASkOou1UaE-18">
          <mxGeometry relative="1" as="geometry" />
        </mxCell>
        <mxCell id="ubwD8zAqVZASkOou1UaE-24" value="" style="edgeStyle=orthogonalEdgeStyle;rounded=0;orthogonalLoop=1;jettySize=auto;html=1;entryX=0;entryY=0.5;entryDx=0;entryDy=0;" edge="1" parent="1" source="ubwD8zAqVZASkOou1UaE-7" target="ubwD8zAqVZASkOou1UaE-2">
          <mxGeometry relative="1" as="geometry">
            <mxPoint x="442.5" y="265" as="targetPoint" />
          </mxGeometry>
        </mxCell>
        <mxCell id="ubwD8zAqVZASkOou1UaE-7" value="로그인 화면" style="ellipse;whiteSpace=wrap;html=1;aspect=fixed;" vertex="1" parent="1">
          <mxGeometry x="272.5" y="220" width="90" height="90" as="geometry" />
        </mxCell>
        <mxCell id="ubwD8zAqVZASkOou1UaE-9" value="RelativeLayout: -&lt;br&gt;LinearLayout: -&lt;br&gt;로그인: textView&lt;br&gt;아이디: user_id&lt;br&gt;비밀번호: user_pw&lt;br&gt;로그인 하기: log_in_btn&lt;br&gt;회원가입화면으로이동: gotosignup&lt;br&gt;비밀번호 재설정: gotoPasswordRestBtn" style="rounded=0;whiteSpace=wrap;html=1;" vertex="1" parent="1">
          <mxGeometry x="230" y="340" width="175" height="150" as="geometry" />
        </mxCell>
        <mxCell id="ubwD8zAqVZASkOou1UaE-11" value="회원가입 화면" style="ellipse;whiteSpace=wrap;html=1;aspect=fixed;" vertex="1" parent="1">
          <mxGeometry x="272.5" y="550" width="90" height="90" as="geometry" />
        </mxCell>
        <mxCell id="ubwD8zAqVZASkOou1UaE-13" value="RelativeLayout: -&lt;br&gt;LinearLayout: -&lt;br&gt;회원가입: textView&lt;br&gt;이메일: user_id&lt;br&gt;비밀번호: user_pw&lt;br&gt;비밀번호: user_pw_check&lt;br&gt;회원가입 하기: gotosignup&lt;br&gt;로그인 화면으로이동: gotologin&lt;br&gt;비밀번호 재설정: gotoPasswordRestBtn" style="rounded=0;whiteSpace=wrap;html=1;" vertex="1" parent="1">
          <mxGeometry x="230" y="670" width="175" height="150" as="geometry" />
        </mxCell>
        <mxCell id="ubwD8zAqVZASkOou1UaE-17" value="RelativeLayout: -&lt;br&gt;LinearLayout: -&lt;br&gt;비밀번호 재설정: textView&lt;br&gt;이메일: emailEditText&lt;br&gt;보내기: sendBtn" style="rounded=0;whiteSpace=wrap;html=1;" vertex="1" parent="1">
          <mxGeometry x="242.5" y="90" width="150" height="80" as="geometry" />
        </mxCell>
        <mxCell id="ubwD8zAqVZASkOou1UaE-18" value="비밀번호 &lt;br&gt;재설정 화면" style="ellipse;whiteSpace=wrap;html=1;" vertex="1" parent="1">
          <mxGeometry x="272.5" y="-30" width="90" height="90" as="geometry" />
        </mxCell>
        <mxCell id="ubwD8zAqVZASkOou1UaE-25" value="RelativeLayout: -&lt;br&gt;CardView: buttonsCardView&lt;br&gt;LinearLayout: -&lt;br&gt;사진 촬영: picture&lt;br&gt;갤러리: delete&lt;br&gt;LinearLayout: -&lt;br&gt;회원 정보: textView&lt;br&gt;LinearLayout: -&lt;br&gt;CardView: -&lt;br&gt;ImageView: profileImageView&lt;br&gt;닉네임: nickNameEditText&lt;br&gt;몸무게: weightEditText&lt;br&gt;키: heightEditText&lt;br&gt;확인: checkBtn" style="rounded=0;whiteSpace=wrap;html=1;" vertex="1" parent="1">
          <mxGeometry x="470" y="670" width="180" height="210" as="geometry" />
        </mxCell>
        <mxCell id="ubwD8zAqVZASkOou1UaE-26" value="회원 정보&lt;br&gt;화면" style="ellipse;whiteSpace=wrap;html=1;" vertex="1" parent="1">
          <mxGeometry x="510" y="550" width="100" height="90" as="geometry" />
        </mxCell>
        <mxCell id="ubwD8zAqVZASkOou1UaE-1" value="LinearLayout: -&lt;br&gt;ScrollView: -&lt;br&gt;LinearView: -&lt;br&gt;RadarChart: radarChart&lt;br&gt;LineChart: lineChart&lt;br&gt;BarChart: barChart&lt;br&gt;SNS 가는 버튼: gotoSNS&lt;br&gt;로그아웃 버튼: logOutBtn" style="rounded=0;whiteSpace=wrap;html=1;" vertex="1" parent="1">
          <mxGeometry x="470" y="340" width="180" height="130" as="geometry" />
        </mxCell>
        <mxCell id="ubwD8zAqVZASkOou1UaE-33" value="" style="edgeStyle=orthogonalEdgeStyle;rounded=0;orthogonalLoop=1;jettySize=auto;html=1;" edge="1" parent="1" source="ubwD8zAqVZASkOou1UaE-29">
          <mxGeometry relative="1" as="geometry">
            <mxPoint x="790" y="550" as="targetPoint" />
          </mxGeometry>
        </mxCell>
        <mxCell id="ubwD8zAqVZASkOou1UaE-29" value="sns 화면" style="ellipse;whiteSpace=wrap;html=1;" vertex="1" parent="1">
          <mxGeometry x="740" y="220" width="100" height="90" as="geometry" />
        </mxCell>
        <mxCell id="ubwD8zAqVZASkOou1UaE-31" value="RelativeLayout: -&lt;br&gt;RecyclerView: -" style="rounded=0;whiteSpace=wrap;html=1;" vertex="1" parent="1">
          <mxGeometry x="700" y="335" width="180" height="130" as="geometry" />
        </mxCell>
        <mxCell id="ubwD8zAqVZASkOou1UaE-34" value="RelativeLayout: -&lt;br&gt;ScrollView: -&lt;br&gt;LinearLayout: -&lt;br&gt;제목: titleEditText&lt;br&gt;LinearLayout: contentsLayout&lt;br&gt;내용: -&lt;br&gt;LinearLayout: -&lt;br&gt;이미지: image&lt;br&gt;RelativeLayout: buttonsBackgroundLayout&lt;br&gt;&amp;nbsp;CardView: -&lt;br&gt;LinearLayout: -&lt;br&gt;이미지 수정: imageModify&lt;br&gt;삭제: delete" style="rounded=0;whiteSpace=wrap;html=1;" vertex="1" parent="1">
          <mxGeometry x="700" y="670" width="180" height="210" as="geometry" />
        </mxCell>
        <mxCell id="ubwD8zAqVZASkOou1UaE-35" value="게시글 작성" style="ellipse;whiteSpace=wrap;html=1;" vertex="1" parent="1">
          <mxGeometry x="740" y="550" width="100" height="90" as="geometry" />
        </mxCell>
      </root>
    </mxGraphModel>
  </diagram>
</mxfile>
